<svg xmlns="http://www.w3.org/2000/svg" version="1.1" xmlns:xlink="http://www.w3.org/1999/xlink" width="512" height="512" x="0" y="0" viewBox="0 0 512 512" style="enable-background:new 0 0 512 512" xml:space="preserve"><g><g fill-rule="evenodd" clip-rule="evenodd"><circle cx="256" cy="256" r="240" fill="#FF5A54" opacity="1" data-original="#ff5a54"></circle><path fill="#DB3A3C" d="M495.289 274.594c-9.019 117.7-102.937 211.638-220.629 220.689L127.262 347.885c-3.75-3.095-6.147-7.776-6.147-13V179.261l41.975 24.274-37.654-37.654c3.086-3.446 7.575-5.623 12.541-5.623h236.045c4.966 0 9.455 2.172 12.541 5.611z" opacity="1" data-original="#db3a3c"></path><path fill="#FFFFFF" d="m390.884 179.244-131.363 75.981c-2.076 1.238-4.742 1.344-6.958.051l-131.448-76.015v155.624c0 9.287 7.575 16.857 16.862 16.857h236.045c9.286 0 16.862-7.57 16.862-16.857zm-252.907-18.986h236.045c4.966 0 9.455 2.172 12.541 5.611l-130.55 75.521-130.578-75.51c3.087-3.445 7.576-5.622 12.542-5.622z" opacity="1" data-original="#ffffff"></path></g></g></svg>